# xmcd CD database file
#
# Track frame offsets:
#	150
#	16936
#	46434
#	68262
#	107604
#	136406
#	157154
#	173799
#	196082
#	224678
#	246046
#	265271
#
# Disc length: 3754 seconds
#
# Revision: 0
# Processed by: cddbd v1.5.1PL0 Copyright (c) Steve Scherf et al.
# Submitted via: CDex 1.50
#
DISCID=a40ea80c
DTITLE=Claude Terranova - Evanescence
DYEAR=2004
DGENRE=Jazz
TTITLE0=Evanescence
TTITLE1=A night in Tunisia
TTITLE2=Surbrillance
TTITLE3=Agua do Brasil
TTITLE4=El Djazair
TTITLE5=A foggy day
TTITLE6=Blue in green
TTITLE7=Azur
TTITLE8=Miniature Aquatique
TTITLE9=Carmen
TTITLE10=Dans un reve
TTITLE11=I love you Porgy
EXTD=YEAR: 2004
EXTT0=
EXTT1=
EXTT2=
EXTT3=
EXTT4=
EXTT5=
EXTT6=
EXTT7=
EXTT8=
EXTT9=
EXTT10=
EXTT11=
PLAYORDER=
